<?xml version="1.0" encoding="utf-8"?>
<!-- Generator: Adobe Illustrator 15.0.0, SVG Export Plug-In . SVG Version: 6.00 Build 0)  -->
<!DOCTYPE svg PUBLIC "-//W3C//DTD SVG 1.1//EN" "http://www.w3.org/Graphics/SVG/1.1/DTD/svg11.dtd">
<svg version="1.1" id="Layer_1" xmlns="http://www.w3.org/2000/svg" xmlns:xlink="http://www.w3.org/1999/xlink" x="0px" y="0px"
	 width="612px" height="792px" viewBox="0 0 612 792" enable-background="new 0 0 612 792" xml:space="preserve">
<g>
	<g>
		<path fill="#FFFFFF" d="M230.926,263.459c-25.594,0-46.414,20.82-46.414,46.42s20.82,46.42,46.414,46.42
			c25.606,0,46.433-20.82,46.433-46.42S256.532,263.459,230.926,263.459z M230.926,337.939c-15.465,0-28.054-12.589-28.054-28.06
			s12.589-28.06,28.054-28.06c15.478,0,28.073,12.589,28.073,28.06S246.41,337.939,230.926,337.939z"/>
		<path fill="#FFFFFF" d="M498.988,358.38c11.965-10.894,34.241-31.188,34.241-122.657c0-153.147-142.584-169.689-203.882-169.689
			S125.46,82.57,125.46,235.723c0,91.323,21.75,111.696,33.446,122.651c12.173,11.408,15.576,18.574-0.128,43.96
			c-15.006,24.223-11.536,41.194-5.979,51.163c8.03,14.432,22.718,19.554,32.853,19.554c3.25,0,6.261-0.489,8.972-1.463
			c4.859-1.763,11.114-2.552,15-2.552c11.928,0,22.938,6.774,29.058,22.576v51.519c0,16.45,12.093,27.289,27.369,27.289h0.697
			c7.491,0,14.315-2.895,19.419-7.625c5.11,4.73,11.934,7.625,19.431,7.625h0.685c7.497,0,14.327-2.9,19.438-7.625
			c5.098,4.725,11.928,7.625,19.419,7.625h0.697c7.497,0,14.327-2.9,19.438-7.625c5.098,4.725,11.928,7.625,19.412,7.625h0.698
			c16.248,0,30.777-11.952,30.777-27.289V494.96c6.12-8.684,11.212-25.924,30.637-25.924c3.99,0,8.017,0.765,12.919,2.54
			c2.803,1.028,5.704,1.505,8.898,1.505c11.463,0,27.559-6.652,35.704-21.261c5.41-9.719,8.862-26.188-5.551-49.492
			C482.99,376.869,486.521,369.721,498.988,358.38z M488.333,442.886c-4.284,7.687-13.305,11.836-19.614,11.836
			c-1.182,0-1.817-0.141-2.497-0.392c-6.983-2.528-12.84-3.654-19.003-3.654c-33.696,0-45.826,30.852-48.623,40.307
			c-0.257,0.839-0.796,1.72-0.796,2.595v49.554c0,5.251-6.347,8.929-12.411,8.929h-0.697c-5.649,0-10.239-3.322-10.239-8.978
			c0-5.067-4.112-8.544-9.18-8.544s-9.181,3.164-9.181,8.231c0,5.655-4.602,9.297-10.257,9.297h-0.697
			c-5.649,0-10.239-3.323-10.239-8.979c0-5.067-4.112-8.543-9.18-8.543s-9.18,3.164-9.18,8.23c0,5.655-4.603,9.297-10.258,9.297
			h-0.685c-5.655,0-10.251-3.323-10.251-8.979c0-5.067-4.113-8.543-9.18-8.543s-9.18,3.164-9.18,8.231
			c0,5.654-4.59,9.296-10.239,9.296h-0.697c-5.594-0.019-9.009-3.408-9.009-8.947v-53.715c0-1.414-0.502-2.815-1.138-4.089
			c-4.253-8.567-17.313-34.651-46.372-34.651c-6.793,0-14.92,1.401-21.114,3.647c-0.312,0.116-1.212,0.374-2.742,0.374
			c-5.386,0-12.95-3.171-16.824-10.129c-5.734-10.275-0.153-23.372,5.539-32.564c15.943-25.771,20.569-45-2.938-67.026
			c-9.657-9.051-27.632-25.881-27.632-109.248C143.82,99.149,273.564,84.4,329.342,84.4c55.777,0,185.521,14.743,185.521,151.329
			c0,83.36-18.372,100.093-28.25,109.089c-24.101,21.928-19.511,41.237-3.439,67.186
			C488.547,420.67,493.805,433.075,488.333,442.886z"/>
		<path fill="#FFFFFF" d="M427.708,263.459c-25.6,0-46.426,20.82-46.426,46.42s20.826,46.42,46.426,46.42
			c25.595,0,46.414-20.82,46.414-46.42S453.296,263.459,427.708,263.459z M427.708,337.939c-15.471,0-28.065-12.589-28.065-28.06
			s12.595-28.06,28.065-28.06c15.466,0,28.055,12.589,28.055,28.06S443.174,337.939,427.708,337.939z"/>
		<path fill="#FFFFFF" d="M305.045,435.541c1.041,0.159,2.044,0.239,3.023,0.239c8.488,0,14.951-5.796,19.951-14.248
			c5.007,8.452,11.476,14.248,19.958,14.248c0.979,0,1.982-0.08,3.011-0.239c19.639-3.017-22.975-66.169-22.975-66.169
			S285.431,432.524,305.045,435.541z"/>
	</g>
</g>
<g display="none">
	<path display="inline" d="M473.027,188.673c-0.691-30.465-25.563-54.958-56.182-54.958c-31.06,0-56.255,25.196-56.255,56.255
		c0,31.077,25.195,56.261,56.255,56.261c0.281,0,0.544-0.043,0.82-0.043c0.281,1.726,0.691,3.403,1.15,5.067
		c-0.667-0.043-1.298-0.202-1.965-0.202c-20.496,0-37.118,16.628-37.118,37.136c0,20.502,16.629,37.124,37.118,37.124
		c20.502,0,37.124-16.628,37.124-37.124c0-0.673-0.159-1.31-0.196-1.971c4.211,1.151,8.563,1.971,13.14,1.971
		c27.639,0,50.056-22.43,50.056-50.074C516.975,212.559,497.752,191.714,473.027,188.673z"/>
	<g display="inline">
		<polygon points="285.7,376.379 314.183,417.401 370.683,417.401 370.683,350.828 303.656,350.828 		"/>
		<polygon points="190.583,377.781 171.886,350.828 95.025,350.828 95.025,417.401 163.49,417.401 		"/>
	</g>
	<rect x="376.771" y="350.828" display="inline" width="27.424" height="66.573"/>
	<g display="inline">
		<path d="M200.638,377.781L120.95,262.958h75.943l42.656,63.274l42.186-63.274h73.593l-79.695,113.422l89.536,128.906h-75.924
			l-50.625-76.402l-50.625,76.402h-74.542L200.638,377.781z"/>
	</g>
</g>
</svg>
